<!-- Generated by IcoMoon.io -->
<svg version="1.1" xmlns="http://www.w3.org/2000/svg" width="32" height="32" viewBox="0 0 32 32">
<title>logo-5</title>
<path fill="#afb1b8" d="M2.434 24.558c0.125 0.155 0.191 0.349 0.188 0.548 0.001 0.013 0.001 0.028 0.001 0.043 0 0.258-0.112 0.49-0.291 0.649l-0.001 0.001c-0.242 0.184-0.542 0.273-0.846 0.253h-1.486v-3.474h1.455c0.025-0.002 0.053-0.003 0.082-0.003 0.272 0 0.523 0.088 0.728 0.236l-0.004-0.002c0.174 0.147 0.283 0.364 0.283 0.608 0 0.015-0 0.029-0.001 0.044l0-0.002c0.009 0.191-0.052 0.38-0.169 0.532-0.113 0.138-0.269 0.233-0.443 0.271 0.197 0.036 0.375 0.141 0.502 0.297zM0.692 24.033h0.621c0.142 0.011 0.282-0.030 0.396-0.116 0.083-0.076 0.135-0.184 0.135-0.305 0-0.012-0.001-0.024-0.002-0.036l0 0.002c0.001-0.009 0.001-0.019 0.001-0.029 0-0.122-0.051-0.232-0.133-0.309l-0-0c-0.099-0.074-0.224-0.119-0.359-0.119-0.017 0-0.034 0.001-0.051 0.002l0.002-0h-0.611v0.911zM1.77 25.365c0.091-0.080 0.148-0.196 0.148-0.325 0-0.010-0-0.019-0.001-0.029l0 0.001c0-0.008 0.001-0.017 0.001-0.025 0-0.132-0.058-0.25-0.15-0.331l-0.001-0c-0.105-0.079-0.238-0.127-0.382-0.127-0.014 0-0.029 0-0.043 0.001l0.002-0h-0.651v0.955h0.661c0.149 0.009 0.296-0.034 0.418-0.12zM5.409 26.051l-0.81-1.358h-0.304v1.358h-0.696v-3.474h1.318c0.027-0.002 0.059-0.003 0.090-0.003 0.316 0 0.605 0.113 0.83 0.3l-0.002-0.002c0.196 0.2 0.316 0.474 0.316 0.776 0 0.249-0.082 0.479-0.221 0.664l0.002-0.003c-0.163 0.187-0.385 0.312-0.629 0.353l0.862 1.388h-0.757zM4.295 24.22h0.569c0.396 0 0.593-0.175 0.593-0.526 0.001-0.009 0.001-0.019 0.001-0.029 0-0.14-0.056-0.268-0.146-0.361l0 0c-0.106-0.089-0.244-0.143-0.395-0.143-0.019 0-0.037 0.001-0.056 0.002l0.002-0h-0.577l0.007 1.058zM9.215 25.352h-1.387l-0.245 0.7h-0.73l1.275-3.435h0.789l1.269 3.435h-0.73l-0.24-0.699zM9.029 24.826l-0.507-1.466-0.507 1.466h1.014zM13.98 26.051h-0.692l-1.55-2.362v2.362h-0.689v-3.474h0.689l1.55 2.376v-2.376h0.692v3.474zM17.925 25.219c-0.145 0.263-0.359 0.473-0.617 0.609l-0.008 0.004c-0.301 0.152-0.635 0.228-0.972 0.219h-1.231v-3.474h1.231c0.016-0 0.034-0.001 0.053-0.001 0.335 0 0.651 0.079 0.93 0.22l-0.012-0.005c0.265 0.133 0.483 0.345 0.626 0.606 0.136 0.265 0.216 0.579 0.216 0.911s-0.080 0.646-0.222 0.923l0.005-0.011zM17.134 25.136c0.19-0.221 0.306-0.512 0.306-0.829s-0.116-0.608-0.308-0.831l0.001 0.002c-0.21-0.185-0.487-0.298-0.791-0.298-0.026 0-0.052 0.001-0.078 0.003l0.004-0h-0.48v2.249h0.481c0.022 0.002 0.049 0.002 0.075 0.002 0.303 0 0.58-0.113 0.792-0.299l-0.001 0.001zM9.648 3.254s8.923 3.382 8.734 8.277v8.278s-8.917-3.384-8.73-8.278l-0.004-8.277zM26.331 17.871c1.597-1.117 3.527-1.869 5.616-2.093l0.054-0.005v-2.591c-2.386 0.941-4.331 2.57-5.641 4.642l-0.028 0.048z"></path>
<path fill="#afb1b8" d="M25.318 18.652c1.393-2.778 3.739-4.906 6.598-5.985l0.084-0.028v-7.467s-12.708 4.818-12.439 11.787v11.786s0.566-0.215 1.457-0.619c0-0.377 0-0.757 0.040-1.139 0.279-3.35 1.866-6.283 4.243-8.322l0.017-0.014z"></path>
<path fill="#afb1b8" d="M24.11 23.030c0.067-0.817 0.215-1.626 0.445-2.414-1.624 1.912-2.631 4.393-2.691 7.106l-0 0.013c1.035-0.498 1.835-0.928 2.618-1.387l-0.174 0.094c-0.152-0.724-0.239-1.555-0.239-2.406 0-0.354 0.015-0.705 0.044-1.051l-0.003 0.045zM24.615 23.073c-0.025 0.286-0.039 0.619-0.039 0.956 0 0.755 0.071 1.493 0.208 2.208l-0.012-0.073c3.472-2.086 7.373-5.309 7.223-9.203v-0.34c-2.586 0.299-4.865 1.425-6.61 3.102l0.004-0.004c-0.399 0.983-0.675 2.122-0.771 3.312l-0.003 0.041z"></path>
</svg>
