<!-- Generated by IcoMoon.io -->
<svg version="1.1" xmlns="http://www.w3.org/2000/svg" width="32" height="32" viewBox="0 0 32 32">
<title>logo-4</title>
<path fill="#2196f3" d="M4.961 12.532h-0.001c-0.905 0-1.638 0.715-1.638 1.597v0.001c0 0.882 0.734 1.597 1.638 1.597h0.001c0.905 0 1.638-0.715 1.638-1.597v-0.001c0-0.882-0.734-1.596-1.638-1.596zM17.055 12.022c-0.003-1.225-0.503-2.399-1.392-3.265-0.888-0.866-2.092-1.354-3.349-1.357-1.257 0.002-2.462 0.49-3.352 1.356s-1.39 2.041-1.392 3.266v6.754s9.484-1.029 9.485-6.753v-0.001zM0 20.993c0.004 0.892 0.375 1.696 0.968 2.271l0.001 0.001c0.602 0.584 1.424 0.944 2.331 0.945h0c0.906-0.001 1.728-0.361 2.331-0.945l-0.001 0.001c0.594-0.576 0.965-1.38 0.969-2.27v-4.701s-6.599 0.718-6.599 4.699zM3.3 21.835c-0.001 0-0.001 0-0.002 0-0.178 0-0.344-0.053-0.482-0.144l0.003 0.002c-0.14-0.092-0.25-0.221-0.316-0.373l-0.002-0.005c-0.042-0.095-0.066-0.206-0.066-0.322 0-0.058 0.006-0.115 0.018-0.17l-0.001 0.005c0.034-0.164 0.116-0.314 0.237-0.431 0.118-0.115 0.269-0.196 0.437-0.23l0.006-0.001c0.168-0.033 0.341-0.016 0.499 0.048s0.293 0.172 0.388 0.31c0.091 0.131 0.146 0.294 0.146 0.469 0 0.116-0.024 0.227-0.067 0.327l0.002-0.005c-0.043 0.103-0.107 0.196-0.187 0.274s-0.176 0.141-0.281 0.183c-0.098 0.041-0.212 0.064-0.331 0.064-0 0-0 0-0 0h0v-0.003zM10.036 21.312h-0.675v0.697h-0.352v-1.706h1.111v0.285h-0.759v0.44h0.675v0.284zM11.726 21.195c0 0.168-0.030 0.315-0.089 0.442s-0.144 0.224-0.256 0.293c-0.104 0.065-0.231 0.103-0.367 0.103-0.005 0-0.009-0-0.014-0h0.001c-0.006 0-0.014 0-0.021 0-0.271 0-0.505-0.159-0.613-0.389l-0.002-0.004c-0.059-0.124-0.093-0.269-0.093-0.422 0-0.005 0-0.010 0-0.015v0.001-0.085c0-0.168 0.030-0.316 0.090-0.443s0.146-0.226 0.256-0.294c0.111-0.069 0.238-0.103 0.38-0.103s0.268 0.034 0.378 0.103c0.111 0.068 0.196 0.166 0.256 0.294s0.092 0.275 0.092 0.442v0.076zM11.37 21.118c0-0.179-0.032-0.315-0.096-0.408-0.057-0.085-0.152-0.14-0.261-0.14-0.005 0-0.010 0-0.014 0l0.001-0c-0.004-0-0.008-0-0.013-0-0.108 0-0.203 0.055-0.259 0.138l-0.001 0.001c-0.064 0.091-0.097 0.226-0.098 0.403v0.083c0 0.174 0.032 0.31 0.096 0.406s0.156 0.144 0.277 0.144c0.004 0 0.009 0 0.014 0 0.107 0 0.202-0.054 0.257-0.137l0.001-0.001c0.063-0.093 0.095-0.228 0.096-0.406v-0.083zM12.866 21.562c0-0.003 0-0.006 0-0.010 0-0.058-0.028-0.109-0.070-0.142l-0-0c-0.047-0.036-0.131-0.074-0.253-0.113-0.113-0.035-0.208-0.075-0.3-0.122l0.010 0.005c-0.194-0.105-0.291-0.246-0.291-0.423 0-0.092 0.026-0.174 0.078-0.246s0.127-0.129 0.224-0.17c0.098-0.040 0.207-0.061 0.328-0.061s0.23 0.022 0.326 0.067c0.096 0.044 0.169 0.106 0.222 0.186s0.080 0.172 0.080 0.274h-0.352c0-0.078-0.024-0.139-0.074-0.182-0.049-0.044-0.118-0.066-0.208-0.066-0.086 0-0.153 0.018-0.2 0.055-0.044 0.031-0.072 0.082-0.072 0.139 0 0.001 0 0.003 0 0.004v-0c0 0.055 0.028 0.102 0.083 0.139 0.056 0.038 0.139 0.073 0.248 0.106 0.2 0.060 0.346 0.135 0.437 0.224s0.137 0.2 0.137 0.332c0 0.148-0.056 0.264-0.168 0.348s-0.262 0.126-0.451 0.126c-0.131 0-0.251-0.024-0.358-0.072-0.101-0.043-0.185-0.111-0.246-0.196l-0.001-0.002c-0.053-0.079-0.085-0.176-0.085-0.281 0-0.003 0-0.007 0-0.010v0.001h0.352c0 0.188 0.113 0.282 0.338 0.282 0.084 0 0.149-0.017 0.196-0.050 0.043-0.031 0.070-0.080 0.070-0.136 0-0.002-0-0.005-0-0.007v0zM14.742 20.588h-0.522v1.421h-0.352v-1.421h-0.516v-0.285h1.39v0.285zM15.97 21.27h-0.675v0.457h0.792v0.282h-1.144v-1.706h1.142v0.285h-0.79v0.406h0.675v0.276zM16.925 21.385h-0.28v0.624h-0.352v-1.706h0.634c0.201 0 0.357 0.045 0.466 0.135s0.164 0.217 0.164 0.381c0 0.116-0.026 0.214-0.076 0.292-0.057 0.082-0.134 0.145-0.225 0.184l-0.003 0.001 0.369 0.697v0.016h-0.378l-0.32-0.624zM16.645 21.1h0.284c0.088 0 0.156-0.022 0.205-0.067 0.045-0.044 0.073-0.106 0.073-0.174 0-0.004-0-0.009-0-0.013l0 0.001c0-0.080-0.023-0.144-0.069-0.19s-0.115-0.069-0.21-0.069h-0.283v0.512zM18.776 21.408v0.601h-0.352v-1.706h0.666c0.128 0 0.24 0.023 0.338 0.070s0.172 0.114 0.225 0.2c0.052 0.086 0.078 0.184 0.078 0.294 0 0.167-0.057 0.299-0.172 0.396s-0.272 0.144-0.475 0.144h-0.308zM18.776 21.124h0.314c0.093 0 0.164-0.022 0.212-0.066 0.049-0.044 0.074-0.106 0.074-0.187 0-0.004 0-0.008 0-0.012 0-0.074-0.028-0.141-0.074-0.191l0 0c-0.049-0.052-0.117-0.078-0.204-0.080h-0.322v0.536zM21 21.27h-0.675v0.457h0.792v0.282h-1.144v-1.706h1.142v0.285h-0.79v0.406h0.675v0.276zM22.631 20.588h-0.522v1.421h-0.352v-1.421h-0.515v-0.285h1.39v0.285zM23.859 21.27h-0.675v0.457h0.792v0.282h-1.144v-1.706h1.142v0.285h-0.79v0.406h0.675v0.276zM24.814 21.385h-0.28v0.624h-0.352v-1.706h0.634c0.202 0 0.357 0.045 0.466 0.135s0.164 0.217 0.164 0.381c0 0.116-0.025 0.214-0.076 0.292-0.056 0.082-0.134 0.145-0.225 0.184l-0.003 0.001 0.369 0.697v0.016h-0.378l-0.32-0.624zM24.534 21.1h0.284c0.088 0 0.156-0.022 0.205-0.067 0.045-0.044 0.073-0.105 0.073-0.173 0-0.005-0-0.009-0-0.014l0 0.001c0-0.080-0.023-0.144-0.069-0.19s-0.115-0.069-0.21-0.069h-0.282v0.512zM26.6 21.562c0-0.003 0-0.006 0-0.010 0-0.058-0.027-0.109-0.070-0.142l-0-0c-0.047-0.036-0.132-0.074-0.253-0.113-0.113-0.035-0.208-0.075-0.3-0.122l0.010 0.005c-0.194-0.105-0.291-0.246-0.291-0.423 0-0.092 0.026-0.174 0.078-0.246s0.127-0.129 0.224-0.17c0.097-0.040 0.207-0.061 0.328-0.061s0.23 0.022 0.326 0.067c0.095 0.044 0.169 0.106 0.222 0.186s0.080 0.172 0.080 0.274h-0.352c0-0.078-0.024-0.139-0.074-0.182-0.049-0.044-0.118-0.066-0.208-0.066-0.086 0-0.153 0.018-0.2 0.055-0.044 0.031-0.072 0.082-0.072 0.139 0 0.001 0 0.003 0 0.004v-0c0 0.055 0.028 0.102 0.083 0.139 0.056 0.038 0.139 0.073 0.247 0.106 0.2 0.060 0.346 0.135 0.437 0.224s0.137 0.2 0.137 0.332c0 0.148-0.056 0.264-0.168 0.348s-0.262 0.126-0.451 0.126c-0.131 0-0.251-0.024-0.358-0.072-0.101-0.043-0.185-0.111-0.246-0.196l-0.001-0.002c-0.053-0.079-0.084-0.176-0.084-0.281 0-0.003 0-0.007 0-0.010v0.001h0.353c0 0.188 0.112 0.282 0.337 0.282 0.084 0 0.149-0.017 0.196-0.050 0.043-0.031 0.070-0.080 0.070-0.136 0-0.002-0-0.005-0-0.007v0z"></path>
</svg>
