<!-- Generated by IcoMoon.io -->
<svg version="1.1" xmlns="http://www.w3.org/2000/svg" width="32" height="32" viewBox="0 0 32 32">
<title>logo-6</title>
<path fill="#afb1b8" d="M16.086 15.408c-0.13-0.186-0.207-0.417-0.207-0.665 0-0.026 0.001-0.052 0.003-0.078l-0 0.004v-1.072c0-0.329 0.068-0.579 0.204-0.75s0.37-0.256 0.701-0.255c0.311 0 0.532 0.073 0.663 0.218 0.142 0.186 0.212 0.412 0.196 0.641v0.252h-0.557v-0.255c0-0.010 0-0.021 0-0.033 0-0.076-0.006-0.151-0.018-0.225l0.001 0.008c-0.009-0.059-0.038-0.111-0.079-0.148l-0-0c-0.049-0.037-0.111-0.058-0.178-0.058-0.008 0-0.017 0-0.025 0.001l0.001-0c-0.007-0.001-0.015-0.001-0.023-0.001-0.071 0-0.137 0.023-0.19 0.063l0.001-0.001c-0.047 0.042-0.080 0.098-0.092 0.162l-0 0.002c-0.016 0.087-0.023 0.176-0.022 0.265v1.302c-0.001 0.015-0.002 0.032-0.002 0.050 0 0.115 0.027 0.223 0.075 0.32l-0.002-0.004c0.028 0.039 0.066 0.069 0.11 0.088l0.002 0.001c0.032 0.014 0.070 0.023 0.11 0.023 0.012 0 0.023-0.001 0.035-0.002l-0.001 0c0.007 0.001 0.015 0.001 0.023 0.001 0.066 0 0.127-0.023 0.175-0.060l-0.001 0c0.044-0.041 0.073-0.095 0.083-0.157l0-0.001c0.013-0.086 0.019-0.174 0.018-0.261v-0.264h0.557v0.241c0.001 0.020 0.002 0.043 0.002 0.066 0 0.228-0.073 0.44-0.197 0.612l0.002-0.003c-0.128 0.159-0.346 0.239-0.666 0.239s-0.562-0.085-0.7-0.262zM18.404 15.419c-0.141-0.167-0.211-0.41-0.211-0.732v-1.128c0-0.319 0.070-0.559 0.211-0.723s0.375-0.245 0.705-0.245c0.327 0 0.561 0.082 0.702 0.245s0.212 0.405 0.212 0.723v1.128c0 0.319-0.072 0.563-0.214 0.731s-0.376 0.252-0.7 0.252c-0.324 0-0.563-0.085-0.705-0.251zM19.368 15.148c0.050-0.104 0.073-0.219 0.067-0.334v-1.381c0.001-0.011 0.001-0.024 0.001-0.037 0-0.106-0.025-0.205-0.069-0.294l0.002 0.004c-0.029-0.040-0.067-0.070-0.112-0.089l-0.002-0.001c-0.032-0.014-0.070-0.022-0.109-0.022-0.013 0-0.026 0.001-0.039 0.003l0.001-0c-0.011-0.002-0.024-0.002-0.038-0.002-0.040 0-0.077 0.008-0.112 0.023l0.002-0.001c-0.047 0.020-0.085 0.050-0.113 0.089l-0.001 0.001c-0.051 0.102-0.074 0.214-0.067 0.327v1.387c-0.007 0.115 0.016 0.229 0.067 0.334 0.032 0.035 0.071 0.063 0.115 0.082l0.002 0.001c0.042 0.019 0.091 0.029 0.143 0.029s0.101-0.011 0.145-0.030l-0.002 0.001c0.046-0.020 0.085-0.048 0.117-0.082l0-0v-0.006zM20.692 12.624h0.599l0.451 2.082 0.461-2.082h0.583l0.059 3.004h-0.43l-0.046-2.088-0.445 2.088h-0.346l-0.461-2.095-0.043 2.095h-0.436l0.054-3.004zM23.517 12.624h0.933c0.538 0 0.806 0.284 0.806 0.853 0 0.545-0.283 0.817-0.849 0.816h-0.317v1.335h-0.576l0.004-3.004zM24.314 13.908c0.057 0.007 0.115 0.002 0.169-0.014s0.105-0.044 0.148-0.080c0.066-0.102 0.095-0.221 0.083-0.339 0-0.010 0.001-0.023 0.001-0.035 0-0.084-0.010-0.166-0.029-0.245l0.001 0.007c-0.009-0.032-0.023-0.059-0.043-0.083l0 0c-0.020-0.025-0.044-0.045-0.072-0.060l-0.001-0.001c-0.066-0.031-0.144-0.049-0.226-0.049-0.011 0-0.021 0-0.032 0.001l0.001-0h-0.224v0.897h0.224zM26.088 12.624h0.619l0.635 3.004h-0.537l-0.125-0.693h-0.552l-0.129 0.693h-0.545l0.635-3.004zM26.616 14.588l-0.216-1.261-0.215 1.261h0.431zM27.854 12.624h0.403l0.772 1.714v-1.714h0.478v3.004h-0.384l-0.777-1.789v1.789h-0.494l0.001-3.004zM30.628 14.483l-0.642-1.855h0.54l0.392 1.191 0.367-1.191h0.529l-0.634 1.855v1.146h-0.553v-1.146zM16.976 16.942v0.157h-0.47v1.221h-0.197v-1.221h-0.472v-0.157h1.14zM18.45 18.319h-0.152c-0.001 0-0.003 0-0.004 0-0.015 0-0.028-0.005-0.039-0.013l0 0c-0.011-0.008-0.020-0.019-0.025-0.031l-0-0-0.136-0.327h-0.652l-0.136 0.327c-0.004 0.014-0.011 0.027-0.021 0.037l0-0c-0.011 0.008-0.024 0.013-0.039 0.013-0.001 0-0.002-0-0.004-0h-0.152l0.576-1.378h0.2l0.583 1.372zM17.496 17.808h0.544l-0.23-0.561c-0.015-0.035-0.029-0.078-0.041-0.122l-0.002-0.007-0.022 0.073-0.021 0.058-0.228 0.56zM19.443 18.184c0.036 0.002 0.072 0.002 0.108 0 0.031-0.003 0.062-0.009 0.092-0.017 0.033-0.008 0.060-0.016 0.087-0.027l-0.004 0.002c0.026-0.010 0.051-0.022 0.078-0.033v-0.31h-0.23c-0.001 0-0.002 0-0.003 0-0.011 0-0.021-0.004-0.029-0.011l0 0c-0.007-0.006-0.012-0.014-0.012-0.024 0-0 0-0.001 0-0.002v0-0.106h0.447v0.528c-0.070 0.047-0.151 0.086-0.237 0.111l-0.006 0.001c-0.041 0.012-0.089 0.022-0.139 0.028l-0.005 0c-0.050 0.006-0.108 0.009-0.166 0.009-0.001 0-0.002 0-0.002 0h0c-0.002 0-0.004 0-0.006 0-0.102 0-0.2-0.019-0.29-0.053l0.006 0.002c-0.089-0.034-0.166-0.083-0.23-0.144l0 0c-0.062-0.061-0.112-0.133-0.147-0.214l-0.002-0.004c-0.034-0.082-0.053-0.177-0.053-0.277 0-0.003 0-0.006 0-0.010v0c-0-0.003-0-0.006-0-0.009 0-0.101 0.019-0.197 0.054-0.285l-0.002 0.005c0.033-0.082 0.083-0.156 0.148-0.218s0.144-0.111 0.23-0.143c0.099-0.035 0.203-0.052 0.309-0.051 0.054 0 0.107 0.004 0.16 0.012 0.047 0.007 0.093 0.019 0.137 0.035 0.040 0.014 0.079 0.032 0.115 0.055s0.069 0.046 0.101 0.072l-0.056 0.085c-0.005 0.008-0.011 0.014-0.018 0.019l-0 0c-0.008 0.004-0.017 0.007-0.026 0.007h-0c-0.013-0-0.026-0.004-0.036-0.011l0 0c-0.023-0.012-0.041-0.022-0.059-0.034l0.003 0.002c-0.022-0.013-0.047-0.026-0.074-0.036l-0.003-0.001c-0.030-0.012-0.065-0.022-0.102-0.030l-0.004-0.001c-0.042-0.008-0.090-0.012-0.138-0.012-0.003 0-0.006 0-0.008 0h0c-0.002-0-0.004-0-0.007-0-0.077 0-0.151 0.014-0.22 0.040l0.004-0.001c-0.064 0.024-0.122 0.061-0.169 0.109-0.048 0.050-0.084 0.108-0.107 0.172-0.024 0.068-0.039 0.147-0.039 0.23s0.014 0.161 0.040 0.235l-0.002-0.005c0.025 0.065 0.064 0.124 0.115 0.173 0.047 0.047 0.105 0.084 0.168 0.109 0.073 0.024 0.151 0.033 0.228 0.027zM21.28 18.162h0.629v0.157h-0.822v-1.378h0.197l-0.005 1.221zM22.564 18.319h-0.197v-1.377h0.197v1.378zM23.297 16.948c0.012 0.006 0.022 0.015 0.030 0.025l0 0 0.842 1.039c-0.001-0.007-0.001-0.016-0.001-0.025s0-0.017 0.001-0.026l-0 0.001v-1.027h0.172v1.383h-0.099c-0.002 0-0.004 0-0.007 0-0.013 0-0.025-0.003-0.036-0.008l0.001 0c-0.012-0.007-0.022-0.016-0.031-0.026l-0-0-0.841-1.037v1.071h-0.165v-1.377h0.102c0.011 0 0.022 0.002 0.032 0.006zM25.791 16.942v0.152h-0.698v0.455h0.566v0.146h-0.566v0.47h0.698v0.152h-0.901v-1.375h0.901zM5.143 8.433l8.75 2.352v8.242l-8.749-2.35v-8.243zM4.582 7.73v9.345l9.871 2.654v-9.345l-9.871-2.655z"></path>
<path fill="#afb1b8" d="M9.872 24.068l-9.872-2.656v-9.345l9.872 2.655v9.346z"></path>
<path fill="#afb1b8" d="M4.745 8.327l8.635 2.322-3.672 3.478-8.636-2.323 3.674-3.477zM4.582 7.73l-4.582 4.337 9.872 2.655 4.581-4.337-9.871-2.655zM10.427 23.543l4.025-3.811-4.025-1.083v4.895z"></path>
</svg>
